<svg width="1373" height="273" viewBox="0 0 1373 273" fill="none" xmlns="http://www.w3.org/2000/svg">
<path fill-rule="evenodd" clip-rule="evenodd" d="M167.877 15.0284C162.438 23.2935 157.598 30.5047 157.121 31.0515C156.645 31.5983 156.256 32.2924 156.256 32.5938C156.256 32.8952 154.644 35.4117 152.674 38.1868C150.704 40.9619 148.943 43.6028 148.762 44.0557C148.581 44.5087 145.102 49.8818 141.032 55.9961C136.96 62.1104 133.44 67.4835 133.209 67.9364C132.976 68.3893 129.915 73.0905 126.405 78.3838C119.864 88.2474 118.901 90.3859 121.464 89.3549C125.861 87.5869 145.663 82.0351 151.46 80.9456C154.075 80.454 154.564 79.9204 167.733 63.1809C173.354 56.0356 178.352 50.3215 178.839 50.4829C179.326 50.6435 182.437 54.266 185.753 58.5324C189.069 62.7988 192.774 67.5453 193.987 69.0802C195.201 70.6152 196.318 72.1897 196.468 72.58C196.822 73.4908 218.075 73.4875 219.512 72.5759L220.597 71.8883L219.018 69.0893C218.149 67.5494 214.277 60.731 210.412 53.9374C201.966 39.0886 200.287 36.1167 197.615 31.2919C196.486 29.2538 195.281 27.2157 194.937 26.7628C194.593 26.3099 193.591 24.6424 192.712 23.0572C187.854 14.3012 186.672 12.2327 184.886 9.34641C183.806 7.6023 182.278 4.78684 181.491 3.08802C180.704 1.39002 179.543 0 178.912 0C178.281 0 173.315 6.76317 167.877 15.0284ZM198.253 80.3519C184.027 81.2726 163.297 84.1942 151.24 86.9776C146.073 88.1708 140.919 89.3236 139.786 89.5394C135.158 90.423 109.134 98.4996 104.789 100.4C103.883 100.796 101.845 101.584 100.26 102.151C98.6746 102.717 96.0807 103.719 94.4955 104.377C92.9103 105.035 90.8722 105.875 89.9664 106.245C81.6831 109.63 63.7899 118.31 59.4971 121.025C56.4774 122.934 47.6523 129.378 45.3639 131.344C35.1849 140.087 27.8552 147.405 18.2972 158.366C14.3462 162.898 8.20308 173.768 4.7165 182.399C3.56117 185.259 2.35314 191.313 1.86647 196.684C0.549737 211.21 9.75202 227.997 25.5289 239.853C33.4104 245.774 36.3024 247.134 47.5576 250.205C60.081 253.624 68.2729 254.942 84.4755 256.147L97.9236 257.147L110.827 256.156C134.008 254.375 149.495 251.259 171.078 244.033C174.475 242.896 178.422 241.44 179.849 240.798C181.276 240.156 182.67 239.63 182.946 239.63C184.749 239.63 212.244 226.213 212.249 225.332C212.253 224.489 209.403 224.966 203.194 226.845C195.338 229.223 178.164 233.738 172.314 234.963C170.955 235.248 167.249 236.052 164.079 236.75C152.511 239.297 146.602 240.406 137.748 241.695C82.4069 249.744 46.1017 244.31 27.2821 225.159C23.7181 221.533 18.7361 214.73 18.7361 213.492C18.7361 213.092 18.0477 211.306 17.2069 209.523C13.6051 201.886 12.4917 192.418 14.1609 183.619C15.7971 174.992 17.3947 171.052 22.501 163.047C25.5981 158.191 33.4598 149.862 40.9698 143.478C44.211 140.723 53.2914 134.756 59.4979 131.304C67.4634 126.874 68.5817 126.299 71.4383 125.172C73.0235 124.547 76.9144 122.86 80.0847 121.424C83.2551 119.988 87.8871 118.159 90.3781 117.36C92.8691 116.561 95.2597 115.582 95.6895 115.185C96.6983 114.253 101.083 114.242 101.083 115.171C101.083 115.561 100.132 117.281 98.9702 118.993C97.8075 120.706 90.9027 131.412 83.6257 142.783C76.3495 154.155 69.2404 165.127 67.829 167.165C66.4176 169.203 64.8917 171.493 64.4388 172.253C63.9859 173.014 60.2967 178.758 56.2411 185.017C38.5175 212.373 32.4617 221.971 32.134 223.223C31.7091 224.847 33.9753 227.286 35.8816 227.258C36.6425 227.247 40.0434 223.664 43.4403 219.297C46.8371 214.929 52.2102 208.122 55.3806 204.17C58.551 200.217 65.0358 192.044 69.7913 186.007C74.5469 179.969 82.4259 170.032 87.2992 163.924C92.1733 157.817 96.8844 151.879 97.7671 150.728C98.6507 149.578 102.771 144.375 106.923 139.167C111.074 133.958 118.403 124.694 123.207 118.58C128.012 112.466 132.504 106.879 133.188 106.165C133.873 105.451 136.657 104.401 139.375 103.831C142.092 103.261 145.057 102.619 145.962 102.405C150.208 101.402 166.679 99.0859 176.843 98.0623C187.886 96.9498 211.68 96.0226 214.007 96.6138C215.2 96.9177 218.197 100.081 221.722 104.757C224.892 108.963 227.673 112.589 227.903 112.816C228.132 113.042 229.409 114.71 230.741 116.521C232.074 118.333 233.371 120 233.623 120.227C233.876 120.453 235.186 122.121 236.535 123.933C237.883 125.744 239.435 127.782 239.982 128.462C240.53 129.141 246.579 136.923 253.425 145.755C260.272 154.586 266.345 162.392 266.922 163.101C267.958 164.374 273.743 171.967 276.85 176.133C280.034 180.402 282.924 183.507 283.332 183.097C283.562 182.868 281.503 178.726 278.755 173.893C276.008 169.06 272.831 163.439 271.693 161.4C269.343 157.192 269.58 157.607 258.767 138.755C254.349 131.056 249.628 122.718 248.275 120.227C246.92 117.736 245.302 114.877 244.677 113.872C243.381 111.788 239.912 105.624 237.486 101.091C236.58 99.3988 236.096 97.7552 236.411 97.4406C237.821 96.0308 267.758 101 277.934 104.333C286.458 107.125 294.928 116.016 294.928 122.172C294.928 126.691 291.516 132.365 286.282 136.549C283.63 138.668 281.851 140.535 282.326 140.697C283.779 141.192 293.121 137.45 297.481 134.627C304.748 129.922 308.896 124.449 311.014 116.771L312.081 112.904L310.298 109.219C309.316 107.192 306.958 104.27 305.056 102.726C300.997 99.4309 291.668 93.8758 290.19 93.8758C289.626 93.8758 288.813 93.5555 288.382 93.1651C287.686 92.5327 278.657 89.3327 271.954 87.3424C266.776 85.8058 258.531 84.0666 252.19 83.1756C248.567 82.6659 243.379 81.9066 240.662 81.4883C235.331 80.6673 205.663 79.8718 198.253 80.3519ZM12.1516 252.922C7.62088 259.78 3.91361 265.548 3.91361 265.741C3.91361 265.934 2.93532 267.374 1.74046 268.941C0.544783 270.508 -0.214461 272.01 0.0539908 272.278C0.718532 272.942 2.60512 270.807 12.5601 258.122C13.9188 256.391 17.1147 252.369 19.6625 249.185L24.2945 243.395L23.3755 241.925C22.8708 241.116 21.9921 240.454 21.4239 240.454C20.8549 240.454 16.6832 246.065 12.1516 252.922Z" fill="#16508D"/>
<g opacity="0.8">
<path d="M380.946 146.379V149.14H352.471V146.379C361.333 145.653 364.529 142.312 368.452 129.963L397.363 38.7272H401.14L429.469 132.868C433.247 145.217 433.247 145.362 442.399 146.379V149.14H405.934V146.379C416.83 145.508 418.138 144.781 414.651 132.868L410.002 116.888H377.459L373.537 129.963C369.905 141.876 370.922 145.508 380.946 146.379ZM378.622 113.256H408.84L394.021 62.553L378.622 113.256ZM518.274 149.14H494.012V135.629C487.475 144.927 480.501 150.592 471.349 150.592C456.53 150.592 445.053 136.064 445.053 111.948C445.053 85.3619 460.888 69.2359 478.322 69.2359C484.424 69.2359 490.38 71.1245 494.012 73.3037V55.1438C494.012 45.7006 490.525 44.6837 480.356 44.6837V41.9234C491.688 41.9234 498.371 38.5819 506.216 31.7538L507.378 32.4802V129.963C507.378 145.217 507.959 145.362 518.274 146.379V149.14ZM475.707 143.91C483.407 143.91 490.816 137.081 494.012 123.135V93.7881C494.012 78.9696 485.005 73.8849 477.596 73.8849C466.409 73.8849 459.436 85.3619 459.436 110.205C459.436 132.578 465.828 143.91 475.707 143.91ZM584.915 149.14H560.653V140.713C554.261 145.653 546.707 150.592 538.571 150.592C527.384 150.592 523.171 141.73 523.171 134.321C523.171 125.459 528.837 121.101 544.527 115.871L560.653 110.495V94.8051C560.653 79.8413 557.312 73.3037 549.322 73.3037C534.794 73.3037 545.835 93.207 532.76 93.207C527.239 93.207 525.351 89.8656 525.351 86.8147C525.351 78.2432 541.041 69.2359 554.697 69.2359C568.353 69.2359 574.019 76.9357 574.019 90.8826V129.963C574.019 145.217 574.6 145.362 584.915 146.379V149.14ZM545.544 142.893C550.92 142.893 559.491 139.406 560.653 129.963V115.58L549.757 119.067C539.733 122.408 536.828 126.912 536.828 132.723C536.828 137.808 539.443 142.893 545.544 142.893ZM629.666 146.379V149.14H588.842V146.379C600.61 145.508 601.046 145.217 601.046 129.963V92.6259C601.046 83.1827 597.559 82.1658 587.389 82.1658V79.4055C598.721 79.4055 605.404 76.064 611.796 69.2359L614.411 69.9623V82.4563C621.675 72.8679 627.632 69.2359 634.46 69.2359C640.852 69.2359 645.356 72.2868 645.356 77.2263C645.356 81.1488 642.596 84.9261 638.237 84.9261C632.136 84.9261 632.426 77.3716 627.051 77.3716C620.658 77.3716 614.411 86.5242 614.411 105.846V129.963C614.411 145.217 614.993 145.362 629.666 146.379ZM674.732 150.592C669.066 150.592 664.708 148.413 661.657 148.413C659.768 148.413 658.461 149.285 657.88 152.045H654.974L652.068 123.716L655.41 123.425C659.478 136.646 663.255 146.815 673.715 146.815C680.253 146.815 686.645 143.038 686.645 134.031C686.645 114.273 652.94 112.965 652.94 89.8656C652.94 78.9696 660.204 69.2359 675.749 69.2359C680.979 69.2359 683.594 70.834 686.5 70.834C688.243 70.834 689.26 69.6717 690.132 66.3303H692.747L694.926 91.7542L691.875 92.0448C687.807 79.8413 683.303 73.0132 675.458 73.0132C669.502 73.0132 664.127 77.081 664.127 84.0544C664.127 101.197 697.686 104.394 697.686 128.219C697.686 142.457 685.047 150.592 674.732 150.592ZM740.611 146.379V149.14H704.145V146.379C715.913 145.508 716.349 145.217 716.349 129.963V55.1438C716.349 45.7006 712.862 44.6837 702.693 44.6837V41.9234C714.024 41.9234 720.707 38.5819 728.552 31.7538L729.715 32.4802V81.8752C742.063 72.8679 747.003 69.2359 755.138 69.2359C767.051 69.2359 772.136 77.2263 772.136 93.7881V129.963C772.136 145.217 772.717 145.362 784.485 146.379V149.14H748.02V146.379C758.335 145.508 758.77 145.217 758.77 129.963V100.616C758.77 81.7299 752.088 77.3716 745.841 77.3716C738.286 77.3716 729.715 85.2167 729.715 98.7277V129.963C729.715 145.217 730.296 145.362 740.611 146.379ZM887.305 118.776L890.502 119.357L887.015 145.217C878.589 149.575 867.983 150.738 860.429 150.738C832.535 150.738 819.024 130.689 819.024 95.9673C819.024 63.57 836.603 40.18 860.864 40.18C867.257 40.18 871.906 41.7781 875.102 41.7781C878.443 41.7781 880.477 40.4706 881.349 37.2744L884.545 36.9839L888.032 71.1245L884.836 71.9962C879.46 55.1438 869.436 45.2648 857.668 45.2648C842.995 45.2648 834.278 60.8097 834.278 86.96C834.278 121.391 844.738 145.362 862.463 145.362C874.23 145.362 883.383 136.355 887.305 118.776ZM933.297 146.379V149.14H895.524V146.379C907.292 145.508 907.727 145.217 907.727 129.963V55.1438C907.727 45.7006 904.241 44.6837 894.071 44.6837V41.9234C905.403 41.9234 912.086 38.5819 919.931 31.7538L921.093 32.4802V129.963C921.093 145.217 922.982 145.362 933.297 146.379ZM969.41 150.592C953.574 150.592 939.628 137.517 939.628 111.803C939.628 87.6864 951.541 69.2359 971.153 69.2359C982.776 69.2359 996.141 76.064 996.141 99.1635L953.865 103.522C954.01 124.006 961.855 142.312 975.802 142.312C982.776 142.312 990.33 137.808 996.432 131.416L998.175 133.74C991.928 141.295 982.63 150.592 969.41 150.592ZM969.265 73.449C960.403 73.449 955.318 83.0375 954.156 96.6937H982.34C981.468 75.7735 973.623 73.449 969.265 73.449ZM1066.3 149.14H1042.03V140.713C1035.64 145.653 1028.09 150.592 1019.95 150.592C1008.76 150.592 1004.55 141.73 1004.55 134.321C1004.55 125.459 1010.22 121.101 1025.91 115.871L1042.03 110.495V94.8051C1042.03 79.8413 1038.69 73.3037 1030.7 73.3037C1016.17 73.3037 1027.22 93.207 1014.14 93.207C1008.62 93.207 1006.73 89.8656 1006.73 86.8147C1006.73 78.2432 1022.42 69.2359 1036.08 69.2359C1049.73 69.2359 1055.4 76.9357 1055.4 90.8826V129.963C1055.4 145.217 1055.98 145.362 1066.3 146.379V149.14ZM1026.92 142.893C1032.3 142.893 1040.87 139.406 1042.03 129.963V115.58L1031.14 119.067C1021.11 122.408 1018.21 126.912 1018.21 132.723C1018.21 137.808 1020.82 142.893 1026.92 142.893ZM1106.69 146.379V149.14H1070.22V146.379C1081.99 145.508 1082.43 145.217 1082.43 129.963V92.6259C1082.43 83.1827 1078.94 82.1658 1068.77 82.1658V79.4055C1080.1 79.4055 1086.78 76.064 1094.63 69.2359L1095.79 69.9623V81.8752C1108.14 72.8679 1113.08 69.2359 1121.22 69.2359C1133.13 69.2359 1138.21 77.2263 1138.21 93.7881V129.963C1138.21 145.217 1138.79 145.362 1150.56 146.379V149.14H1114.1V146.379C1124.41 145.508 1124.85 145.217 1124.85 129.963V100.616C1124.85 81.7299 1118.16 77.3716 1111.92 77.3716C1104.36 77.3716 1095.79 85.2167 1095.79 98.7277V129.963C1095.79 145.217 1096.37 145.362 1106.69 146.379ZM1186.34 150.592C1170.5 150.592 1156.55 137.517 1156.55 111.803C1156.55 87.6864 1168.47 69.2359 1188.08 69.2359C1199.7 69.2359 1213.07 76.064 1213.07 99.1635L1170.79 103.522C1170.94 124.006 1178.78 142.312 1192.73 142.312C1199.7 142.312 1207.26 137.808 1213.36 131.416L1215.1 133.74C1208.85 141.295 1199.56 150.592 1186.34 150.592ZM1186.19 73.449C1177.33 73.449 1172.24 83.0375 1171.08 96.6937H1199.27C1198.39 75.7735 1190.55 73.449 1186.19 73.449ZM1261.57 146.379V149.14H1220.75V146.379C1232.52 145.508 1232.95 145.217 1232.95 129.963V92.6259C1232.95 83.1827 1229.47 82.1658 1219.3 82.1658V79.4055C1230.63 79.4055 1237.31 76.064 1243.71 69.2359L1246.32 69.9623V82.4563C1253.58 72.8679 1259.54 69.2359 1266.37 69.2359C1272.76 69.2359 1277.27 72.2868 1277.27 77.2263C1277.27 81.1488 1274.5 84.9261 1270.15 84.9261C1264.04 84.9261 1264.34 77.3716 1258.96 77.3716C1252.57 77.3716 1246.32 86.5242 1246.32 105.846V129.963C1246.32 145.217 1246.9 145.362 1261.57 146.379ZM1282.67 71.8509L1280.2 70.6887L1291.82 34.9499C1295.75 35.0952 1299.52 34.2235 1302.72 33.0613L1306.06 34.3688L1282.67 71.8509ZM1337 150.592C1331.34 150.592 1326.98 148.413 1323.93 148.413C1322.04 148.413 1320.73 149.285 1320.15 152.045H1317.24L1314.34 123.716L1317.68 123.425C1321.75 136.646 1325.53 146.815 1335.99 146.815C1342.52 146.815 1348.92 143.038 1348.92 134.031C1348.92 114.273 1315.21 112.965 1315.21 89.8656C1315.21 78.9696 1322.47 69.2359 1338.02 69.2359C1343.25 69.2359 1345.86 70.834 1348.77 70.834C1350.51 70.834 1351.53 69.6717 1352.4 66.3303H1355.02L1357.2 91.7542L1354.15 92.0448C1350.08 79.8413 1345.57 73.0132 1337.73 73.0132C1331.77 73.0132 1326.4 77.081 1326.4 84.0544C1326.4 101.197 1359.96 104.394 1359.96 128.219C1359.96 142.457 1347.32 150.592 1337 150.592Z" fill="black"/>
<path d="M361.769 241.246V191.851H368.452V241.246H361.769ZM378.767 223.231H366.563V217.783H378.404C382.084 217.783 384.941 216.863 386.975 215.023C389.009 213.183 390.026 210.689 390.026 207.541C390.026 204.394 389.009 201.9 386.975 200.059C384.941 198.219 382.157 197.299 378.622 197.299H366.563V191.851H378.694C382.423 191.851 385.643 192.481 388.355 193.74C391.116 194.999 393.222 196.791 394.675 199.115C396.176 201.44 396.927 204.224 396.927 207.469C396.927 212.457 395.28 216.331 391.987 219.091C388.694 221.851 384.288 223.231 378.767 223.231ZM414.183 241.246V191.851H420.866V241.246H414.183ZM432.561 219.236H418.978V215.096H431.689C434.982 215.096 437.525 214.297 439.317 212.699C441.157 211.052 442.077 208.873 442.077 206.161C442.077 203.449 441.157 201.294 439.317 199.696C437.525 198.098 435.031 197.299 431.835 197.299H418.978V191.851H431.98C437.162 191.851 441.278 193.11 444.329 195.628C447.428 198.098 448.978 201.488 448.978 205.798C448.978 210.156 447.477 213.498 444.474 215.822C441.52 218.098 437.549 219.236 432.561 219.236ZM444.329 241.246L441.205 227.88C440.721 225.846 440.091 224.297 439.317 223.231C438.542 222.166 437.501 221.464 436.193 221.125C434.934 220.737 433.312 220.544 431.326 220.544H420.14V216.185H432.343C435.636 216.185 438.275 216.476 440.261 217.057C442.246 217.638 443.796 218.679 444.91 220.181C446.072 221.682 446.992 223.813 447.67 226.573L451.375 241.246H444.329ZM468.087 241.246V191.851H474.77V241.246H468.087ZM472.881 241.246V235.798H501.574V241.246H472.881ZM472.881 197.299V191.851H501.574V197.299H472.881ZM472.881 218.365V212.917H498.886V218.365H472.881ZM519.153 241.246V191.851H525.836V241.246H519.153ZM563.9 241.246V191.851H570.582V241.246H563.9ZM547.192 241.246H542.471L529.25 209.575L522.858 191.851H528.379L543.56 228.098L545.522 234.055H544.505L546.539 228.098L561.648 191.851H566.805L560.413 209.648L547.192 241.246ZM590.65 241.246V191.851H597.333V241.246H590.65ZM656.247 222.432C656.247 226.5 655.448 230.011 653.85 232.965C652.252 235.871 649.976 238.123 647.022 239.721C644.116 241.319 640.629 242.118 636.561 242.118C632.494 242.118 628.983 241.319 626.029 239.721C623.075 238.123 620.799 235.871 619.201 232.965C617.602 230.011 616.803 226.5 616.803 222.432V191.851H623.559V222.432C623.559 226.888 624.697 230.399 626.973 232.965C629.297 235.483 632.494 236.742 636.561 236.742C640.629 236.742 643.801 235.459 646.077 232.893C648.402 230.326 649.564 226.839 649.564 222.432V191.851H656.247V222.432ZM675.686 241.246V191.851H682.369V241.246H675.686ZM720.433 241.246V191.851H727.115V241.246H720.433ZM703.725 241.246H699.004L685.783 209.575L679.391 191.851H684.912L700.093 228.098L702.055 234.055H701.038L703.072 228.098L718.181 191.851H723.338L716.946 209.648L703.725 241.246ZM770.442 241.246V191.851H777.124V241.246H770.442ZM786.568 235.798C790.345 235.798 793.589 235.048 796.301 233.546C799.013 231.997 801.071 229.793 802.476 226.936C803.929 224.079 804.655 220.641 804.655 216.621C804.655 212.553 803.929 209.091 802.476 206.234C801.071 203.328 799.013 201.125 796.301 199.624C793.589 198.074 790.345 197.299 786.568 197.299H775.236V191.851H786.568C791.701 191.851 796.108 192.844 799.788 194.829C803.517 196.815 806.398 199.648 808.432 203.328C810.466 207.009 811.483 211.44 811.483 216.621C811.483 221.754 810.466 226.161 808.432 229.842C806.398 233.522 803.517 236.355 799.788 238.341C796.108 240.278 791.701 241.246 786.568 241.246H775.236V235.798H786.568ZM829.808 241.246V191.851H836.49V241.246H829.808ZM848.185 219.236H834.602V215.096H847.314C850.607 215.096 853.149 214.297 854.941 212.699C856.781 211.052 857.701 208.873 857.701 206.161C857.701 203.449 856.781 201.294 854.941 199.696C853.149 198.098 850.655 197.299 847.459 197.299H834.602V191.851H847.604C852.786 191.851 856.902 193.11 859.953 195.628C863.052 198.098 864.602 201.488 864.602 205.798C864.602 210.156 863.101 213.498 860.098 215.822C857.144 218.098 853.173 219.236 848.185 219.236ZM859.953 241.246L856.83 227.88C856.345 225.846 855.716 224.297 854.941 223.231C854.166 222.166 853.125 221.464 851.817 221.125C850.558 220.737 848.936 220.544 846.951 220.544H835.764V216.185H847.968C851.261 216.185 853.9 216.476 855.885 217.057C857.871 217.638 859.42 218.679 860.534 220.181C861.696 221.682 862.617 223.813 863.295 226.573L866.999 241.246H859.953ZM894.305 241.246V223.014H900.988V241.246H894.305ZM884.063 191.851L895.613 212.408L898.228 217.856H897.574L900.044 212.408L911.594 191.851H918.712L900.988 223.014H894.305L876.581 191.851H884.063ZM926.958 224.176V218.728H946.28V224.176H926.958ZM1006.38 206.088H999.403C998.483 203.086 996.812 200.786 994.391 199.188C992.018 197.541 989.257 196.718 986.11 196.718C982.914 196.718 980.153 197.517 977.829 199.115C975.553 200.713 973.785 203.013 972.526 206.016C971.315 208.97 970.71 212.505 970.71 216.621C970.71 220.737 971.315 224.273 972.526 227.227C973.737 230.181 975.48 232.457 977.756 234.055C980.081 235.604 982.865 236.379 986.11 236.379C989.161 236.379 991.848 235.604 994.173 234.055C996.497 232.505 998.192 230.253 999.257 227.299H1006.3C1005.38 230.399 1003.93 233.062 1001.95 235.29C999.96 237.517 997.587 239.212 994.826 240.374C992.115 241.537 989.185 242.118 986.037 242.118C981.437 242.118 977.466 241.101 974.124 239.067C970.831 236.985 968.289 234.055 966.497 230.277C964.754 226.452 963.882 221.9 963.882 216.621C963.882 211.343 964.778 206.791 966.57 202.965C968.41 199.139 971.001 196.185 974.342 194.103C977.683 192.021 981.679 190.979 986.328 190.979C989.524 190.979 992.478 191.56 995.19 192.723C997.95 193.837 1000.3 195.531 1002.24 197.808C1004.22 200.035 1005.6 202.795 1006.38 206.088ZM1023.86 241.246V191.851H1030.54V241.246H1023.86ZM1028.65 241.246V235.798H1055.38V241.246H1028.65ZM1072.09 241.246V191.851H1078.77V241.246H1072.09ZM1076.88 241.246V235.798H1105.57V241.246H1076.88ZM1076.88 197.299V191.851H1105.57V197.299H1076.88ZM1076.88 218.365V212.917H1102.89V218.365H1076.88ZM1129.18 229.406V224.03H1154.68V229.406H1129.18ZM1158.53 241.246L1143.49 202.674L1141.89 197.88H1142.18L1140.59 202.674L1125.55 241.246H1118.94L1138.33 191.851H1146.03L1165.5 241.246H1158.53ZM1181.31 241.246V191.851H1188V241.246H1181.31ZM1213.86 241.246V191.851H1220.54V241.246H1213.86ZM1213.57 241.246L1190.9 206.597L1182.48 191.851H1188.29L1211.02 226.718L1219.45 241.246H1213.57ZM1240.61 241.246V191.851H1247.29V241.246H1240.61ZM1267.34 241.246V191.851H1274.03V241.246H1267.34ZM1299.89 241.246V191.851H1306.57V241.246H1299.89ZM1299.6 241.246L1276.93 206.597L1268.51 191.851H1274.32L1297.05 226.718L1305.48 241.246H1299.6ZM1367.32 206.088H1360.34C1359.42 203.086 1357.75 200.786 1355.33 199.188C1352.96 197.541 1350.2 196.718 1347.05 196.718C1343.85 196.718 1341.09 197.517 1338.77 199.115C1336.49 200.713 1334.73 203.013 1333.47 206.016C1332.26 208.97 1331.65 212.505 1331.65 216.621C1331.65 220.737 1332.26 224.273 1333.47 227.227C1334.73 230.181 1336.52 232.457 1338.84 234.055C1341.21 235.604 1344.02 236.379 1347.27 236.379C1349.74 236.379 1351.97 235.871 1353.95 234.854C1355.94 233.788 1357.53 232.142 1358.74 229.914C1360 227.687 1360.71 224.805 1360.85 221.27H1364.19C1364.19 226.064 1363.42 230.011 1361.87 233.11C1360.37 236.161 1358.28 238.437 1355.62 239.939C1353.01 241.391 1350.03 242.118 1346.69 242.118C1342.23 242.118 1338.36 241.101 1335.06 239.067C1331.82 236.985 1329.3 234.055 1327.51 230.277C1325.72 226.452 1324.82 221.9 1324.82 216.621C1324.82 211.343 1325.72 206.791 1327.51 202.965C1329.35 199.139 1331.94 196.185 1335.28 194.103C1338.62 192.021 1342.62 190.979 1347.27 190.979C1350.46 190.979 1353.42 191.56 1356.13 192.723C1358.89 193.837 1361.24 195.531 1363.18 197.808C1365.16 200.035 1366.54 202.795 1367.32 206.088ZM1367.24 241.246H1362.23L1360.85 221.27H1348.21V215.967H1367.24V241.246Z" fill="black"/>
</g>
</svg>
